<?xml version="1.0" encoding="utf-8"?>
<!-- Generator: Adobe Illustrator 25.4.1, SVG Export Plug-In . SVG Version: 6.00 Build 0)  -->
<svg version="1.1" id="Capa_1" xmlns="http://www.w3.org/2000/svg" xmlns:xlink="http://www.w3.org/1999/xlink" x="0px" y="0px"
	 viewBox="0 0 48 48" style="enable-background:new 0 0 48 48;" xml:space="preserve">
<style type="text/css">
	.st0{fill:#FFFFFF;}
</style>
<g transform="translate(0.000000,512.000000) scale(0.100000,-0.100000)">
	<path class="st0" d="M216.1,5119.1c-85.3-9-160.1-63.7-194.9-142.7c-9.2-20.8-14.7-39.5-18.6-62.3c-2.9-16.8-3.6-51.9-1.3-69.5
		c7.1-57.5,31-107.1,70.9-147c18.2-18.2,38.4-32.8,61.3-44.3c27.8-14,37.6-16.2,43.9-9.7l3,3l0.3,24.1l0.3,24l-5-0.8
		c-17.7-2.6-31.8-2-42.9,1.8c-9.3,3.2-14.5,6.6-21.8,13.9c-4.8,4.9-7.1,8.2-10.1,14.9c-2.3,4.8-4.9,10.4-5.9,12.7
		c-4.7,10.1-11.9,18.9-21.1,25.7c-5.8,4.2-10.6,9.2-10.6,10.9c0,2.1,6.9,3.9,12.6,3.3c12.3-1.3,25.6-11,34.6-25.4
		c8.4-13.2,16.3-20.1,27.9-24.1c8.5-2.9,25.1-2.2,35.6,1.5l7.2,2.5l0.7,4.5c1.4,9.4,5.9,19,12,25.7c1.6,1.7,2.7,3.3,2.4,3.4
		c-0.2,0.2-5.3,1.1-11.2,2c-30.8,4.8-52.1,14.4-68.5,31.2c-17.8,18.1-26.5,40.6-29.2,74.9c-2.2,29.3,4.2,53.7,18.9,72.3
		c5.3,6.7,5.3,6.4,2.3,17.3c-0.9,3.4-1.5,9.5-1.5,17.2c-0.1,12.2,1,19.2,4.9,31.4l2,5.9h4.8c13.3,0,33.6-8.2,55.2-22.3l5.1-3.3
		l5.6,1.3c36.3,8.8,72.4,8.9,107.7,0.4l7.5-1.8l6.1,3.9c20.9,13.6,41.3,21.7,54.2,21.8h4.8l2-5.9c5.8-18,6.8-34.7,3-50.6l-2.3-9.1
		l4.9-6.1c14.7-18.8,21.1-43,18.9-72.4c-2.4-33.5-10.7-55.4-27.9-73.9c-15.3-16.6-38.5-27.3-70.2-32.1c-5.6-1-10.5-1.8-10.7-2
		c-0.2-0.2,1.4-2.3,3.5-4.7c4-4.6,7.4-11.4,10.1-19.7c1.4-4.5,1.7-10.7,2.2-49.8l0.6-44.8l3-3c2.4-2.5,3.9-3.2,8-3.5
		c4.2-0.3,6.6,0.3,15.8,3.9c57.9,22.9,105.5,68.4,131.5,125.5c10.9,23.8,17.5,47.6,20.9,75.1c2.3,17.6,1.6,52.6-1.3,69.5
		c-12.2,72.8-53.1,133.9-114.5,171.6c-30.3,18.6-63.6,29.8-100.2,33.5C251.5,5120.3,227.2,5120.2,216.1,5119.1z"/>
</g>
</svg>
