<?xml version="1.0" encoding="utf-8"?>
<!-- Generator: Adobe Illustrator 25.4.1, SVG Export Plug-In . SVG Version: 6.00 Build 0)  -->
<svg version="1.1" id="Capa_1" xmlns="http://www.w3.org/2000/svg" xmlns:xlink="http://www.w3.org/1999/xlink" x="0px" y="0px"
	 viewBox="0 0 48 48" style="enable-background:new 0 0 48 48;" xml:space="preserve">
<style type="text/css">
	.st0{fill:#FFFFFF;}
</style>
<g transform="translate(0.000000,512.000000) scale(0.100000,-0.100000)">
	<path class="st0" d="M209.5,5118.7c-43.3-5.6-83-22.2-117.7-49c-11-8.5-29.6-26.9-38.7-38.2c-25.9-32.1-43-70-50.3-111.2
		c-2.6-14.6-3.7-49.8-2-65.8c7.7-71.8,47.3-136.5,108.4-176.3c30.4-19.8,64.6-32.3,101.7-36.9c14.3-1.8,44.3-1.7,59.1,0.1
		c108.8,13.5,195.1,99.9,208.6,208.7c1.9,15.2,1.9,44.8,0,60c-8.6,69.8-47.7,132.3-106.9,171.2c-30.8,20.3-65.2,32.8-101.7,37.4
		C255.7,5120.4,223,5120.4,209.5,5118.7z M302.4,5016c13.9-1.2,23.3-3.8,34.1-9.1c7.5-3.7,10.2-5.7,17.4-12.8
		c7.1-7.2,9.2-9.9,12.8-17.4c9.6-19.3,10.3-27.3,9.8-104.1c-0.3-55.8-0.5-60.1-2.3-68.1c-6.8-30-25.9-50.4-54-57.5
		c-12.9-3.4-25.3-3.9-80.3-3.9c-69.1,0-77.9,0.9-96.6,10.1c-7.5,3.7-10.2,5.7-17.4,12.8c-7.1,7.2-9.2,9.9-12.8,17.4
		c-9.2,18.7-10,26.8-10,96.6s0.8,77.9,10,96.6c3.7,7.5,5.6,10.2,12.8,17.3c11.7,11.6,22.2,17.1,40.2,20.7
		C179.2,5017.4,276.3,5018.3,302.4,5016z"/>
	<path class="st0" d="M182.3,4992.6c-18.7-1.3-30.6-5.8-39.9-15.2c-9.4-9.5-13.4-20.5-14.9-40.9c-1.1-15.5-1.1-97.4,0-112.9
		c1.5-20.3,5.6-31.5,15.1-41c9.9-10,20.5-13.6,44-15.2c20-1.3,112.2-0.6,120.8,0.9c25.8,4.7,39.6,18.5,44.3,44.3
		c1.5,8.6,2.3,100.9,0.9,120.9c-1.6,23.7-5.1,33.9-15.2,44c-9.7,9.7-20.6,13.7-41.5,15.1C281.4,4993.6,197.2,4993.5,182.3,4992.6z
		 M320.7,4967.7c6-3.1,10-11.3,8.3-17.2c-3.7-12.9-17.4-17-26.5-7.9C289.9,4955.3,304.8,4975.8,320.7,4967.7z M259.2,4947.6
		c12.3-3.8,20.7-9,30-18.3c9.4-9.4,14.4-17.7,18.4-30.5c3.2-10.1,3.2-27.4,0-37.5c-3.9-12.8-9-21.1-18.4-30.5
		c-9.4-9.4-17.7-14.4-30.5-18.4c-10.1-3.2-27.4-3.2-37.5,0c-12.8,3.9-21.1,9-30.5,18.4c-9.4,9.4-14.4,17.7-18.4,30.5
		c-3.2,10.1-3.2,27.4,0,37.5c7.1,23.2,24.5,41,46.8,48.3c8.1,2.6,13.2,3.2,23.6,2.8C249.4,4949.7,254.8,4948.9,259.2,4947.6z"/>
	<path class="st0" d="M225.3,4924.1c-12.3-4-23.6-14.7-28.5-26.9c-1.9-4.7-2.3-7-2.3-17.2c0-10,0.4-12.5,2.2-17.1
		c4.6-11.3,14.9-21.7,26.3-26.3c4.6-1.8,7-2.2,17.1-2.2c10,0,12.5,0.4,17.1,2.2c11.3,4.6,21.7,14.9,26.3,26.3
		c1.8,4.6,2.2,7,2.2,17.1s-0.4,12.5-2.2,17.1c-4.6,11.3-15,21.8-26.3,26.2C249.3,4926.4,233.4,4926.8,225.3,4924.1z"/>
</g>
</svg>
