<?xml version="1.0" encoding="utf-8"?>
<!-- Generator: Adobe Illustrator 25.4.1, SVG Export Plug-In . SVG Version: 6.00 Build 0)  -->
<svg version="1.1" id="Capa_1" xmlns="http://www.w3.org/2000/svg" xmlns:xlink="http://www.w3.org/1999/xlink" x="0px" y="0px"
	 viewBox="0 0 48 48" style="enable-background:new 0 0 48 48;" xml:space="preserve">
<style type="text/css">
	.st0{fill:#FFFFFF;}
</style>
<g transform="translate(0.000000,512.000000) scale(0.100000,-0.100000)">
	<path class="st0" d="M32.8,5117.8c-14.9-5.1-27-17.6-31.3-32.4c-1.3-4.6-1.5-24.9-1.5-205.5c0-196.9,0-200.4,1.9-206.2
		c4.6-14.9,17.7-27.8,32.7-32.2c4.6-1.3,24.9-1.5,205.5-1.5c196.9,0,200.4,0,206.2,1.9c14.9,4.6,27.8,17.7,32.2,32.7
		c1.3,4.6,1.5,24.9,1.5,205.4s-0.2,200.8-1.5,205.4c-4.4,15-17.2,28.1-32.2,32.7c-5.8,1.9-9.3,1.9-206.7,1.9l-200.7-0.1L32.8,5117.8
		z M119.2,5053.1c21.2-6.5,34-26.2,30.8-47.4c-4.7-30.1-38.9-45.8-64.6-29.5c-18.7,11.8-25,36.1-14.8,56.2
		c2.5,5,10.5,13.3,15.6,16.2C95.4,5054,109.6,5056,119.2,5053.1z M343.9,4929.7c9.8-2.4,24.6-10,32.7-16.9
		c17-14.1,27.8-34,30.2-55.7c0.7-5.4,1-35.2,1-77v-68h-35.6h-35.6v64.1c0,39.4-0.4,66-0.9,69.1c-2.2,11.5-9.9,21.5-20.6,26.5
		c-5.4,2.6-7,2.9-15,2.9s-9.6-0.3-15-2.9c-10.7-5.1-18.5-15-20.6-26.5c-0.6-3.1-0.9-29.7-0.9-69.1v-64.1H228h-35.6V4820v107.8H228
		h35.5l0.3-14.6l0.3-14.5l5.5,6.4c11.8,13.7,29.5,23.9,46.4,26.5C323,4932.7,335.2,4931.8,343.9,4929.7z M143.4,4820v-107.8h-35.6
		H72.2V4820v107.8h35.6h35.6V4820z"/>
</g>
</svg>
